<?xml version="1.0" encoding="utf-8"?>
<!-- Generator: Adobe Illustrator 24.1.0, SVG Export Plug-In . SVG Version: 6.00 Build 0)  -->
<svg version="1.1" id="Layer_1" xmlns="http://www.w3.org/2000/svg" xmlns:xlink="http://www.w3.org/1999/xlink" x="0px" y="0px"
	 viewBox="0 0 1233.78 363.3" style="enable-background:new 0 0 1233.78 363.3;" xml:space="preserve">
<style type="text/css">
	.st0{display:none;}
	.st1{fill:#FCCC00;}
	.st2{display:inline;}
	.st3{fill:#FFFFFF;}
	.st4{fill:#1E9ACA;}
</style>
<rect x="-72.33" y="-55.68" class="st0" width="1369.79" height="492.72"/>
<g id="Layer_2">
	<path class="st1" d="M143.3,105.56c-23.83-6.99-44.39-18.08-62.89-34.48C91.96,70.06,136.12,93.52,143.3,105.56z"/>
	<path class="st1" d="M122.58,149.35c-23.61,3.87-46.69,2.36-69.15-5.85C77,139.44,100.08,141.22,122.58,149.35z"/>
	<path class="st1" d="M148.69,16.74c14.28,18.29,22.44,39.06,25.02,62.09C159.43,60.55,151.35,39.75,148.69,16.74z"/>
	<path class="st1" d="M233.08,4.95c-1.07,21.59-7.71,41.24-20.43,58.78C213.57,42.09,220.56,22.56,233.08,4.95z"/>
	<path class="st1" d="M291.75,32.95c-7.32,15.47-30.77,36.05-44.22,39.07C258.76,54.4,273.46,41.65,291.75,32.95z"/>
	<path class="st1" d="M125.53,173.68c-11.67,9.84-24.77,13.14-39.72,11.74C92.53,176.33,114.36,169.87,125.53,173.68z"/>
	<path class="st1" d="M85.96,115.3c15.04-1.38,27.43,3.29,38.7,12.63C115.42,132.08,93.81,125.08,85.96,115.3z"/>
	<path class="st1" d="M128.85,58.17c11.43,3.21,24.72,18.74,25.23,29.57C140.94,81.85,133.22,71.85,128.85,58.17z"/>
	<path class="st1" d="M185.94,28.13c8.48,7.58,12.84,24.21,9.13,34.79C187.29,58.57,181.37,35.93,185.94,28.13z"/>
	<path class="st1" d="M236.19,68.57c-0.51-13.79,4.16-24.6,14.15-33.49C253.12,45.47,246.39,61.62,236.19,68.57z"/>
</g>
<g class="st0">
	<path class="st2" d="M418.83,120.18l-75.2,129.27c-5.62,9.6-12.41,14.4-20.39,14.4c-6.1,0-10.82-1.89-14.16-5.68
		c-3.34-3.78-5-9.17-5-16.17l3.17-87.52l-44.43,94.97c-4.48,9.6-10.95,14.4-19.41,14.4c-6.1,0-10.89-1.93-14.34-5.8
		c-3.46-3.87-5.19-9.22-5.19-16.05l-2.56-84.35c0-14.89-1.28-24.92-3.85-30.09c-2.56-5.17-7.55-7.75-14.95-7.75
		c-6.59,0-13.14,3.48-19.65,10.44c-6.51,6.96-9.77,13.98-9.77,21.06c0,5.94,1.83,10.74,5.49,14.4s8.46,5.49,14.4,5.49
		c1.71,0,3.34-0.04,4.88-0.12c1.54-0.08,2.52-0.12,2.93-0.12c9.93,0,14.89,4.11,14.89,12.33c0,5.45-2.81,9.99-8.42,13.61
		c-5.62,3.62-12.7,5.43-21.24,5.43c-13.18,0-24.09-4.52-32.71-13.55c-8.63-9.03-12.94-20.47-12.94-34.3
		c0-16.85,6.85-31.92,20.57-45.23c13.71-13.31,29.24-19.96,46.57-19.96c15.87,0,27.36,4.66,34.48,13.98
		c7.12,9.32,10.68,24.23,10.68,44.74l0.12,9.64l0.73,42.48l43.58-94.6c4.88-10.82,12.33-16.24,22.34-16.24
		c5.7,0,10.29,1.69,13.79,5.07c3.5,3.38,5.25,7.87,5.25,13.49l-0.12,1.34l-2.2,92.9l54.93-94.6l2.56-4.76
		c4.47-7.81,11.35-11.72,20.63-11.72h28.8c11.31,0,16.97,3.99,16.97,11.96c0,5.37-2,9.58-5.98,12.63c-3.99,3.05-9.52,4.58-16.6,4.58
		H418.83z"/>
</g>
<g>
	<path class="st3" d="M418.87,119.75l-75.2,129.27c-5.62,9.6-12.41,14.4-20.39,14.4c-6.1,0-10.82-1.89-14.16-5.68
		c-3.34-3.78-5-9.17-5-16.17l3.17-87.52l-44.43,94.97c-4.48,9.6-10.95,14.4-19.41,14.4c-6.1,0-10.88-1.93-14.34-5.8
		c-3.46-3.87-5.19-9.22-5.19-16.05l-2.56-84.35c0-14.89-1.28-24.92-3.85-30.09c-2.56-5.17-7.55-7.75-14.95-7.75
		c-6.59,0-13.14,3.48-19.65,10.44c-6.51,6.96-9.77,13.98-9.77,21.06c0,5.94,1.83,10.74,5.49,14.4s8.46,5.49,14.4,5.49
		c1.71,0,3.34-0.04,4.88-0.12c1.54-0.08,2.52-0.12,2.93-0.12c9.93,0,14.89,4.11,14.89,12.33c0,5.45-2.81,9.99-8.42,13.61
		c-5.62,3.62-12.7,5.43-21.24,5.43c-13.18,0-24.09-4.52-32.71-13.55c-8.63-9.03-12.94-20.47-12.94-34.3
		c0-16.85,6.86-31.92,20.57-45.23c13.71-13.31,29.24-19.96,46.57-19.96c15.87,0,27.36,4.66,34.49,13.98
		c7.12,9.32,10.68,24.23,10.68,44.74l0.12,9.64l0.73,42.48l43.58-94.6c4.88-10.82,12.33-16.24,22.34-16.24
		c5.7,0,10.29,1.69,13.79,5.07c3.5,3.38,5.25,7.87,5.25,13.49l-0.12,1.34l-2.2,92.9l54.93-94.6l2.56-4.76
		c4.47-7.81,11.35-11.72,20.63-11.72h23.8c11.31,0,16.97,3.99,16.97,11.96c0,5.37-2,9.58-5.98,12.63c-3.99,3.05-9.52,4.58-16.6,4.58
		H418.87z"/>
	<path class="st3" d="M450.61,221.43c0,6.1,4.6,9.16,13.79,9.16h36.25c10.25,0,15.38,3.62,15.38,10.86c0,4.96-1.81,8.83-5.43,11.6
		c-3.62,2.77-8.69,4.15-15.2,4.15h-34.55c-12.86,0-22.64-3.17-29.36-9.52c-6.71-6.35-10.07-15.63-10.07-27.83
		c0-15.71,5.31-29.25,15.93-40.65c10.62-11.39,23.25-17.09,37.9-17.09c10.66,0,19.23,2.79,25.7,8.36
		c6.47,5.58,9.71,12.92,9.71,22.03c0,10.99-4.48,19.13-13.43,24.41c-4.96,3.01-12.37,4.52-22.22,4.52H450.61z M456.47,199.22h13.43
		c8.71,0,12.94-1.91,12.7-5.74c-0.24-4.31-3.05-6.47-8.42-6.47C466.68,187.01,460.78,191.08,456.47,199.22z"/>
	<path class="st3" d="M604.05,230.59h13.43c10.25,0,15.38,3.58,15.38,10.74c0,4.96-1.83,8.85-5.49,11.66
		c-3.66,2.81-8.71,4.21-15.14,4.21H596.6c-7,0-11.76-2.73-14.28-8.18c-6.1,5.45-12,8.18-17.7,8.18h-13.92
		c-8.95,0-16.17-3.19-21.67-9.58c-5.49-6.39-8.24-14.75-8.24-25.09c0-15.63,5.39-29.6,16.17-41.93
		c10.78-12.33,22.97-18.49,36.56-18.49c10.42,0,18.02,3.62,22.83,10.86c4.07-6.1,9.4-9.16,15.99-9.16c3.58,0,6.57,1.14,8.97,3.42
		c2.4,2.28,3.6,5.09,3.6,8.42c0,2.28-0.65,5-1.95,8.18l-1.34,3.3L604.05,230.59z M559.74,231.2h3.05c6.67,0,11.11-2.73,13.31-8.18
		l8.54-21.12c1.14-2.77,1.71-5.08,1.71-6.96c0-2.2-1.08-4.11-3.23-5.74c-2.16-1.63-4.74-2.44-7.75-2.44
		c-5.94,0-11.72,3.46-17.33,10.38c-5.62,6.92-8.42,14.08-8.42,21.48C549.61,227.01,552.98,231.2,559.74,231.2z"/>
	<path class="st3" d="M698.53,163.82h3.78c10.33,0,15.5,3.62,15.5,10.86c0,4.96-1.83,8.83-5.49,11.6
		c-3.66,2.77-8.71,4.15-15.14,4.15h-8.91l-16.36,40.16h13.67c10.33,0,15.5,3.62,15.5,10.86c0,4.96-1.81,8.83-5.43,11.6
		c-3.62,2.77-8.69,4.15-15.2,4.15h-21.85c-6.19,0-11.09-1.42-14.71-4.27c-3.62-2.85-5.43-6.71-5.43-11.6c0-3.01,0.73-6.35,2.2-10.01
		l2.32-5.37l14.4-35.52h-1.83c-9.12,0-13.67-3.54-13.67-10.62c0-5.04,1.81-8.97,5.43-11.78s8.69-4.21,15.2-4.21h5.62l6.47-15.99
		l1.34-3.3c3.82-9.03,9.85-13.55,18.07-13.55c3.34,0,6.21,1.12,8.61,3.36c2.4,2.24,3.6,4.94,3.6,8.12c0,3.09-1.06,7-3.17,11.72
		L698.53,163.82z"/>
	<path class="st3" d="M771.41,169.07c8.54-4.64,15.58-6.96,21.12-6.96c7.81,0,14.22,2.18,19.23,6.53c5,4.35,7.51,9.91,7.51,16.66
		c0,4.07-0.98,8.5-2.93,13.31l-12.82,31.98h14.04c10.25,0,15.38,3.62,15.38,10.86c0,4.96-1.81,8.83-5.43,11.6
		c-3.62,2.77-8.69,4.15-15.2,4.15h-24.54c-5.21,0-9.58-1.48-13.12-4.46c-3.54-2.97-5.31-6.61-5.31-10.93
		c0-2.93,0.93-6.67,2.81-11.23L783.37,203c1.38-3.5,2.08-6.14,2.08-7.93c0-4.64-3.09-6.96-9.28-6.96c-8.3,0-15.3,7.08-21,21.24
		l-13.67,33.57c-4.31,10.66-10.7,15.99-19.17,15.99c-3.34,0-6.19-1.06-8.54-3.17c-2.36-2.12-3.54-4.68-3.54-7.69
		c0-2.28,0.61-4.96,1.83-8.06l1.34-3.3l53.1-130.98c4.64-11.23,10.99-16.85,19.04-16.85c3.34,0,6.21,1.12,8.61,3.36
		c2.4,2.24,3.6,4.94,3.6,8.12c0,2.61-1.06,6.47-3.17,11.6L771.41,169.07z"/>
	<path class="st3" d="M866.87,221.43c0,6.1,4.6,9.16,13.79,9.16h36.25c10.25,0,15.38,3.62,15.38,10.86c0,4.96-1.81,8.83-5.43,11.6
		c-3.62,2.77-8.69,4.15-15.2,4.15h-34.55c-12.86,0-22.64-3.17-29.36-9.52c-6.71-6.35-10.07-15.63-10.07-27.83
		c0-15.71,5.31-29.25,15.93-40.65c10.62-11.39,23.25-17.09,37.9-17.09c10.66,0,19.23,2.79,25.7,8.36
		c6.47,5.58,9.71,12.92,9.71,22.03c0,10.99-4.48,19.13-13.43,24.41c-4.96,3.01-12.37,4.52-22.22,4.52H866.87z M872.73,199.22h13.43
		c8.71,0,12.94-1.91,12.7-5.74c-0.24-4.31-3.05-6.47-8.42-6.47C882.94,187.01,877.04,191.08,872.73,199.22z"/>
	<path class="st3" d="M967.45,190.55l-4.15,10.25c-3.74,9.12-8.63,13.67-14.65,13.67c-3.66,0-6.71-1.1-9.16-3.3
		s-3.66-4.92-3.66-8.18c0-1.87,0.89-5.04,2.69-9.52l13.79-34.06c3.34-8.22,8.06-12.33,14.16-12.33c6.02,0,9.72,2.85,11.11,8.54
		l0.98,3.78c0.49,1.95,1.22,3.17,2.2,3.66s3.38,0.73,7.2,0.73h28.56c10.66,0,15.99,3.74,15.99,11.23c0,10.34-6.76,15.5-20.26,15.5
		l-1.34,1.22c-12.94,12.37-19.41,21.93-19.41,28.69c0,6.76,3.74,10.13,11.23,10.13h15.38c10.33,0,15.5,3.58,15.5,10.74
		c0,5.05-1.81,8.95-5.43,11.72c-3.62,2.77-8.69,4.15-15.2,4.15h-23.93c-8.14,0-14.79-2.81-19.96-8.42
		c-5.17-5.62-7.75-12.9-7.75-21.85c0-5.7,1.38-11.23,4.15-16.6c2.77-5.37,7.65-11.96,14.65-19.78H967.45z"/>
	<path class="st3" d="M1071.7,230.59h12.82c10.33,0,15.5,3.62,15.5,10.86c0,4.96-1.81,8.83-5.43,11.6
		c-3.62,2.77-8.69,4.15-15.2,4.15h-21.97c-6.02,0-10.78-1.42-14.28-4.27c-3.5-2.85-5.25-6.67-5.25-11.47
		c0-2.52,1.18-6.71,3.54-12.57l49.32-121.34l1.34-3.3c3.74-9.11,9.72-13.67,17.94-13.67c3.42,0,6.33,1.14,8.73,3.42
		c2.4,2.28,3.6,5,3.6,8.18c0,2.44-0.61,5.21-1.83,8.3l-1.34,3.3L1071.7,230.59z"/>
	<path class="st3" d="M1175.09,262.21h14.16c10.33,0,15.5,3.62,15.5,10.86c0,4.96-1.81,8.83-5.43,11.6
		c-3.62,2.77-8.69,4.15-15.2,4.15h-19.78c-2.36,7-6.63,16.28-12.82,27.83c-10.74,20.34-26.37,30.52-46.88,30.52
		c-12.45,0-22.91-3.91-31.37-11.72c-8.46-7.81-12.7-17.5-12.7-29.05c0-8.06,2.3-15.56,6.9-22.52c4.6-6.96,10.64-12.19,18.13-15.69
		c8.63-3.99,21.36-5.98,38.21-5.98h19.9l3.54-8.79c-6.02,2.52-11.56,3.78-16.6,3.78c-8.71,0-15.77-2.22-21.18-6.65
		c-5.41-4.44-8.12-10.19-8.12-17.27c0-4.31,1.75-10.78,5.25-19.41l13.31-32.84l1.34-3.42c3.91-9.2,9.97-13.79,18.19-13.79
		c3.58,0,6.57,1.14,8.97,3.42c2.4,2.28,3.6,5.17,3.6,8.67c0,2.36-1.06,6.19-3.17,11.47l-11.96,29.17c-1.87,4.72-2.85,7.77-2.93,9.16
		c-0.24,3.99,2.28,5.98,7.57,5.98c3.74,0,7.57-1.1,11.47-3.3s6.39-4.68,7.45-7.45l16.36-39.92l1.22-3.42
		c3.82-9.2,9.89-13.79,18.19-13.79c3.58,0,6.57,1.16,8.97,3.48c2.4,2.32,3.6,5.19,3.6,8.61c0,2.36-0.61,5.09-1.83,8.18l-1.46,3.3
		L1175.09,262.21z M1135.18,288.82h-17.09c-18.72,0-28.08,5.86-28.08,17.58c0,4.15,1.28,7.49,3.85,10.01
		c2.56,2.52,6,3.78,10.31,3.78c5.94,0,11.21-2.32,15.81-6.96C1124.58,308.59,1129.64,300.45,1135.18,288.82z"/>
</g>
<g id="Layer_3">
	<path class="st4" d="M433.71,286.21L433.71,286.21c-1.43-1.43-1.43-3.77,0-5.2l12.27-12.27c1.43-1.43,3.77-1.43,5.2,0l0,0
		c1.43,1.43,1.43,3.77,0,5.2l-12.27,12.27C437.48,287.64,435.14,287.64,433.71,286.21z"/>
	<path class="st4" d="M466.82,286.21L466.82,286.21c-1.43-1.43-1.43-3.77,0-5.2l12.27-12.27c1.43-1.43,3.77-1.43,5.2,0l0,0
		c1.43,1.43,1.43,3.77,0,5.2l-12.27,12.27C470.59,287.64,468.25,287.64,466.82,286.21z"/>
	<path class="st4" d="M499.94,286.21L499.94,286.21c-1.43-1.43-1.43-3.77,0-5.2l12.27-12.27c1.43-1.43,3.77-1.43,5.2,0l0,0
		c1.43,1.43,1.43,3.77,0,5.2l-12.27,12.27C503.71,287.64,501.37,287.64,499.94,286.21z"/>
	<path class="st4" d="M533.05,286.21L533.05,286.21c-1.43-1.43-1.43-3.77,0-5.2l12.27-12.27c1.43-1.43,3.77-1.43,5.2,0l0,0
		c1.43,1.43,1.43,3.77,0,5.2l-12.27,12.27C536.83,287.64,534.49,287.64,533.05,286.21z"/>
	<path class="st4" d="M406.63,313.19L406.63,313.19c-1.43-1.43-1.43-3.77,0-5.2l12.27-12.27c1.43-1.43,3.77-1.43,5.2,0l0,0
		c1.43,1.43,1.43,3.77,0,5.2l-12.27,12.27C410.41,314.62,408.07,314.62,406.63,313.19z"/>
	<path class="st4" d="M439.75,313.19L439.75,313.19c-1.43-1.43-1.43-3.77,0-5.2l12.27-12.27c1.43-1.43,3.77-1.43,5.2,0l0,0
		c1.43,1.43,1.43,3.77,0,5.2l-12.27,12.27C443.52,314.62,441.18,314.62,439.75,313.19z"/>
	<path class="st4" d="M472.87,313.19L472.87,313.19c-1.43-1.43-1.43-3.77,0-5.2l12.27-12.27c1.43-1.43,3.77-1.43,5.2,0l0,0
		c1.43,1.43,1.43,3.77,0,5.2l-12.27,12.27C476.64,314.62,474.3,314.62,472.87,313.19z"/>
	<path class="st4" d="M505.98,313.19L505.98,313.19c-1.43-1.43-1.43-3.77,0-5.2l12.27-12.27c1.43-1.43,3.77-1.43,5.2,0l0,0
		c1.43,1.43,1.43,3.77,0,5.2l-12.27,12.27C509.76,314.62,507.41,314.62,505.98,313.19z"/>
	<path class="st4" d="M499.71,286.21L499.71,286.21c-1.43-1.43-1.43-3.77,0-5.2l12.27-12.27c1.43-1.43,3.77-1.43,5.2,0l0,0
		c1.43,1.43,1.43,3.77,0,5.2l-12.27,12.27C503.48,287.64,501.14,287.64,499.71,286.21z"/>
	<path class="st4" d="M532.82,286.21L532.82,286.21c-1.43-1.43-1.43-3.77,0-5.2l12.27-12.27c1.43-1.43,3.77-1.43,5.2,0l0,0
		c1.43,1.43,1.43,3.77,0,5.2l-12.27,12.27C536.59,287.64,534.25,287.64,532.82,286.21z"/>
	<path class="st4" d="M565.94,286.21L565.94,286.21c-1.43-1.43-1.43-3.77,0-5.2l12.27-12.27c1.43-1.43,3.77-1.43,5.2,0l0,0
		c1.43,1.43,1.43,3.77,0,5.2l-12.27,12.27C569.71,287.64,567.37,287.64,565.94,286.21z"/>
	<path class="st4" d="M599.05,286.21L599.05,286.21c-1.43-1.43-1.43-3.77,0-5.2l12.27-12.27c1.43-1.43,3.77-1.43,5.2,0l0,0
		c1.43,1.43,1.43,3.77,0,5.2l-12.27,12.27C602.83,287.64,600.49,287.64,599.05,286.21z"/>
	<path class="st4" d="M472.63,313.19L472.63,313.19c-1.43-1.43-1.43-3.77,0-5.2l12.27-12.27c1.43-1.43,3.77-1.43,5.2,0l0,0
		c1.43,1.43,1.43,3.77,0,5.2l-12.27,12.27C476.41,314.62,474.07,314.62,472.63,313.19z"/>
	<path class="st4" d="M505.75,313.19L505.75,313.19c-1.43-1.43-1.43-3.77,0-5.2l12.27-12.27c1.43-1.43,3.77-1.43,5.2,0l0,0
		c1.43,1.43,1.43,3.77,0,5.2l-12.27,12.27C509.52,314.62,507.18,314.62,505.75,313.19z"/>
	<path class="st4" d="M538.87,313.19L538.87,313.19c-1.43-1.43-1.43-3.77,0-5.2l12.27-12.27c1.43-1.43,3.77-1.43,5.2,0l0,0
		c1.43,1.43,1.43,3.77,0,5.2l-12.27,12.27C542.64,314.62,540.3,314.62,538.87,313.19z"/>
	<path class="st4" d="M571.98,313.19L571.98,313.19c-1.43-1.43-1.43-3.77,0-5.2l12.27-12.27c1.43-1.43,3.77-1.43,5.2,0l0,0
		c1.43,1.43,1.43,3.77,0,5.2l-12.27,12.27C575.76,314.62,573.41,314.62,571.98,313.19z"/>
</g>
</svg>
